HIERARCHY
ROOT Hips
{
	OFFSET 0.000000 0.000000 0.000000 
	CHANNELS 6 Xposition Yposition Zposition Zrotation Yrotation Xrotation
	JOINT LeftUpLeg
	{
		OFFSET 1.363060 -1.794630 0.839290 
		CHANNELS 3 Zrotation Yrotation Xrotation
		JOINT LeftLeg
		{
			OFFSET 2.448110 -6.726130 0.000000 
			CHANNELS 3 Zrotation Yrotation Xrotation
			JOINT LeftFoot
			{
				OFFSET 2.562200 -7.039590 0.000000 
				CHANNELS 3 Zrotation Yrotation Xrotation
				JOINT LeftToeBase
				{
					OFFSET 0.157640 -0.433110 2.322550 
					CHANNELS 3 Zrotation Yrotation Xrotation
					End Site
					{
						OFFSET 0.000000 0.000000 0.000000 
					}
				}
			}
		}
	}
	JOINT RightUpLeg
	{
		OFFSET -1.305520 -1.794630 0.839290 
		CHANNELS 3 Zrotation Yrotation Xrotation
		JOINT RightLeg
		{
			OFFSET -2.542530 -6.985550 0.000000 
			CHANNELS 3 Zrotation Yrotation Xrotation
			JOINT RightFoot
			{
				OFFSET -2.568260 -7.056230 0.000000 
				CHANNELS 3 Zrotation Yrotation Xrotation
				JOINT RightToeBase
				{
					OFFSET -0.164730 -0.452590 2.363150 
					CHANNELS 3 Zrotation Yrotation Xrotation
					End Site
					{
						OFFSET 0.000000 0.000000 0.000000 
					}
				}
			}
		}
	}
	JOINT Spine
	{
		OFFSET 0.028270 2.035590 -0.193380 
		CHANNELS 3 Zrotation Yrotation Xrotation
		JOINT Spine1
		{
			OFFSET 0.056720 2.048850 -0.042750 
			CHANNELS 3 Zrotation Yrotation Xrotation
			JOINT Neck1
			{
				OFFSET -0.054170 1.746240 0.172020 
				CHANNELS 3 Zrotation Yrotation Xrotation
				JOINT Head
				{
					OFFSET 0.104070 1.761360 -0.123970 
					CHANNELS 3 Zrotation Yrotation Xrotation
					End Site
					{
						OFFSET 0.000000 0.000000 0.000000 
					}
				}
			}
			JOINT LeftArm
			{
				OFFSET 3.362410 1.200890 -0.311210 
				CHANNELS 3 Zrotation Yrotation Xrotation
				JOINT LeftForeArm
				{
					OFFSET 4.983000 -0.000000 -0.000000 
					CHANNELS 3 Zrotation Yrotation Xrotation
					JOINT LeftHand
					{
						OFFSET 3.483560 -0.000000 -0.000000 
						CHANNELS 3 Zrotation Yrotation Xrotation
						JOINT LeftHandIndex1
						{
							OFFSET 0.715260 -0.000000 -0.000000 
							CHANNELS 3 Zrotation Yrotation Xrotation
							End Site
							{
								OFFSET 0.000000 0.000000 0.000000 
							}
						}
					}
				}
			}
			JOINT RightArm
			{
				OFFSET -3.136600 1.374050 -0.404650 
				CHANNELS 3 Zrotation Yrotation Xrotation
				JOINT RightForeArm
				{
					OFFSET -5.241900 -0.000000 -0.000000 
					CHANNELS 3 Zrotation Yrotation Xrotation
					JOINT RightHand
					{
						OFFSET -3.444170 -0.000000 -0.000000 
						CHANNELS 3 Zrotation Yrotation Xrotation
						JOINT RightHandIndex1
						{
							OFFSET -0.622530 -0.000000 -0.000000 
							CHANNELS 3 Zrotation Yrotation Xrotation
							End Site
							{
								OFFSET 0.000000 0.000000 0.000000 
							}
						}
					}
				}
			}
		}
	}
}
MOTION
Frames: 18
Frame Time: 0.041667
-6.642845 17.177756 4.312441 -10.895549 19.163663 -2.307428 -7.347360 -5.939750 -44.784952 17.402470 21.497035 81.010102 -0.575231 3.565576 6.819257 0.063700 -1.628700 -4.480500 14.275801 2.912633 -11.420128 -2.490872 -10.989284 34.296847 0.633751 -4.626738 0.136034 -2.090100 9.051200 -25.955600 2.325918 6.994707 -1.435529 5.877715 3.480760 -4.622419 3.433579 -5.520003 6.370111 1.828000 -2.883500 7.289900 -84.202316 18.197873 33.598938 74.162553 -60.861971 -57.724939 -0.741376 -2.502632 -20.458439 -7.125000 0.000000 0.000000 75.542925 -5.019033 40.817937 -125.728689 56.032767 -94.533562 1.987234 -0.782991 -13.671035 7.125000 0.000000 0.000000 
-6.513254 17.159515 4.917974 -11.330879 20.665497 -2.761195 -7.773460 -6.855738 -46.034743 16.416820 21.486335 78.240197 -0.538069 3.515172 7.566569 0.058000 -1.553500 -4.273300 15.184692 2.011225 -8.333305 -2.230084 -10.472027 32.951688 1.174259 -6.038502 -1.571853 -2.323400 9.509400 -27.402300 2.325971 7.374037 -1.484398 5.798323 3.704956 -5.044304 3.499712 -5.742610 6.613924 1.847200 -2.994800 7.466100 -84.305729 18.959563 33.165964 74.601717 -60.992980 -58.132703 -0.732795 -2.486022 -20.729983 -7.125000 0.000000 0.000000 75.531905 -3.063211 41.337897 -125.702436 55.981507 -94.523019 1.987134 -0.841886 -14.147498 7.125000 0.000000 0.000000 
-6.370832 17.156546 5.524357 -11.500707 22.043709 -3.023832 -8.658198 -7.671789 -46.980314 15.188466 21.356017 74.893348 -0.399346 3.143258 8.348364 0.114300 -2.179500 -6.001900 15.810206 0.998497 -5.268406 -1.918837 -9.859825 31.274521 1.732887 -7.465714 -2.275133 -2.668700 10.138400 -29.426000 2.277464 7.727486 -1.515531 5.582614 3.931318 -5.398220 3.463854 -5.872466 6.503493 1.783500 -3.052000 7.300500 -84.300705 19.499903 32.743220 74.586576 -61.010533 -58.184325 -0.727796 -2.434058 -20.950512 -7.125000 0.000000 0.000000 75.741457 -1.112092 42.059282 -125.197859 56.126474 -94.170849 2.017024 -0.864917 -14.071481 7.125000 0.000000 0.000000 
-6.205397 17.137882 6.136041 -11.896346 22.901807 -3.233094 -9.389573 -8.150353 -47.789807 13.822536 21.115080 71.248383 -0.067396 2.124723 8.980531 0.207800 -2.935300 -8.098800 16.610921 0.244162 -2.171220 -1.604629 -9.221532 29.508203 2.224664 -8.697304 -2.351739 -2.926800 10.575600 -30.861600 2.229309 8.271245 -1.515850 5.227499 4.249654 -5.453690 3.428022 -5.846016 6.418244 1.748000 -3.032000 7.140900 -84.172849 20.123890 32.458572 74.917413 -61.157220 -58.582806 -0.689556 -2.306521 -21.058416 -7.125000 0.000000 0.000000 75.911609 0.497898 42.656671 -125.218177 56.083252 -94.167673 2.031630 -0.911323 -13.904617 7.125000 0.000000 0.000000 
-6.011647 17.134488 6.738712 -12.369632 23.232487 -3.080982 -10.091968 -8.261475 -48.737267 12.303944 20.740367 67.197438 0.344789 0.903598 10.030000 0.227900 -3.073000 -8.482000 17.313200 -0.300062 0.532387 -1.280731 -8.556191 27.645018 2.514330 -9.399259 -1.688921 -3.111000 10.872600 -31.851400 2.151645 9.017876 -1.623708 4.708519 4.674699 -5.747498 3.512581 -6.041810 6.670698 1.836600 -3.131200 7.322300 -83.929510 21.535279 32.344796 76.300848 -61.602358 -59.860288 -0.651799 -2.165298 -21.075557 -7.125000 0.000000 0.000000 76.002740 1.481965 42.772229 -125.621596 55.865024 -94.445551 1.978397 -1.033853 -13.837942 7.125000 0.000000 0.000000 
-5.800187 17.136927 7.330035 -12.839337 23.384370 -2.719476 -10.838160 -8.322727 -49.785932 10.699109 20.223100 62.874300 0.703857 -0.030059 11.520952 0.246300 -3.193400 -8.817700 17.814832 -0.802919 2.736639 -1.030055 -7.984795 26.049230 2.711931 -9.882935 -0.312617 -3.487400 11.445100 -33.796200 1.987595 9.813595 -1.791680 3.706732 5.124553 -6.123639 3.692996 -6.461121 6.941155 2.013800 -3.333000 7.580800 -82.941885 23.385798 32.786730 79.059157 -62.396926 -62.105750 -0.634880 -2.228675 -21.444145 -7.125000 0.000000 0.000000 76.328420 2.042586 43.392656 -125.974063 55.618826 -94.682990 2.012489 -1.047424 -11.643440 7.125000 0.000000 0.000000 
-5.585652 17.161955 7.936312 -13.488170 24.101335 -2.654702 -11.632219 -8.453050 -50.257320 8.994486 19.504675 58.257458 1.094235 -0.962119 13.292366 0.348400 -3.792600 -10.494000 18.557164 -1.483934 5.004479 -0.839024 -7.476865 24.649020 2.846462 -10.265663 1.543461 -3.867300 11.981600 -35.667000 1.829641 10.330685 -1.887852 2.658043 5.428364 -6.113633 3.863597 -6.821400 7.064212 2.135800 -3.485200 7.753600 -81.639192 24.780573 33.363665 81.819916 -63.151321 -64.265706 -0.609066 -2.262233 -21.767715 -7.125000 0.000000 0.000000 76.876991 2.662260 44.151487 -126.704083 55.236289 -95.170251 2.029349 -1.067623 -10.730550 7.125000 0.000000 0.000000 
-5.342378 17.182210 8.515440 -13.821022 24.640475 -1.757352 -12.796720 -8.551803 -51.146466 7.229144 18.609624 53.368303 1.395718 -1.365609 15.655479 0.290800 -3.467600 -9.583400 18.595147 -1.856244 6.059044 -0.635856 -7.027206 23.364541 2.560678 -9.678314 4.717127 -4.030500 12.200900 -36.446300 1.605890 10.859187 -2.017729 1.365704 5.760287 -5.830737 3.905159 -7.190860 7.198360 2.189800 -3.647100 7.945800 -80.717940 25.879918 33.765516 83.562701 -63.639585 -65.667300 -0.583660 -2.171864 -21.369726 -7.125000 0.000000 0.000000 77.331011 3.145228 44.808575 -127.549013 54.808380 -95.729944 1.998959 -1.128965 -10.655598 7.125000 0.000000 0.000000 
-5.086803 17.209040 9.111641 -14.425900 24.616006 -1.549568 -13.810760 -7.709241 -51.203724 5.505541 17.504234 48.433132 1.736134 -1.638787 18.505626 0.163200 -2.602500 -7.174000 18.737523 -1.942921 7.697209 -0.448126 -6.615488 22.242820 2.028194 -8.617480 8.589279 -4.026800 12.196000 -36.428800 1.419204 11.574544 -2.098947 0.121080 6.165125 -5.686520 3.866231 -7.587861 7.236230 2.173200 -3.825700 7.995900 -79.829691 27.106497 34.142996 84.655145 -63.986125 -66.538537 -0.595196 -2.117181 -20.924144 -7.125000 0.000000 0.000000 77.524251 3.342335 45.546390 -128.234026 54.452240 -96.154978 2.007176 -1.208834 -10.818072 7.125000 0.000000 0.000000 
-4.837802 17.247853 9.755565 -14.728607 25.540360 -1.324467 -15.233639 -7.170250 -50.758782 3.870557 16.263783 43.757321 2.275626 -2.566845 21.463803 0.103300 -2.072100 -5.705000 18.863984 -2.384637 9.406323 -0.308121 -6.231877 21.144920 1.670706 -8.373638 13.125970 -3.904300 12.031900 -35.845000 1.298662 11.799281 -2.173801 -0.407624 6.344399 -5.521232 3.809512 -7.951595 7.169698 2.108500 -3.993800 7.877700 -79.196565 28.300141 34.518142 85.213824 -64.214743 -66.912059 -0.628045 -2.180295 -20.581378 -7.125000 0.000000 0.000000 77.622188 3.182762 46.392551 -129.091416 54.051374 -96.699243 2.033735 -1.257669 -11.060286 7.125000 0.000000 0.000000 
-4.573531 17.298332 10.376369 -14.651376 25.987326 -0.758717 -16.965175 -6.265290 -50.343339 2.421518 14.988311 39.488406 2.818452 -3.509119 24.173327 0.046400 -1.390400 -3.823800 18.249601 -2.495763 10.481005 -0.157275 -5.886068 19.990120 1.060355 -8.351173 19.713833 -3.287800 11.147000 -32.777100 1.190990 12.139778 -2.229524 -0.618223 6.576711 -5.305464 3.877534 -8.160193 7.168694 2.215900 -4.101200 7.924700 -79.402520 29.329103 34.474165 85.608468 -64.363441 -67.128248 -0.682425 -2.274418 -20.236165 -7.125000 0.000000 0.000000 77.497502 2.791889 47.677006 -130.051400 53.597451 -97.333210 2.027362 -1.248648 -11.052496 7.125000 0.000000 0.000000 
-4.326121 17.372884 11.052425 -14.424623 26.686505 -0.475154 -18.873314 -4.916225 -49.450006 1.234736 13.773534 35.908931 3.358960 -4.646719 26.398063 0.010700 -0.667900 -1.835600 17.956282 -2.149924 11.983759 -0.147352 -5.778548 19.122565 0.574758 -10.045069 26.900144 -2.438600 9.725400 -28.092100 1.164126 12.304496 -2.207996 -0.016331 6.725498 -4.849856 4.198343 -8.393934 7.429455 2.456100 -4.209300 8.252400 -79.757099 30.254518 34.441363 86.005520 -64.503613 -67.385942 -0.717689 -2.230067 -20.062300 -7.125000 0.000000 0.000000 77.274300 2.342287 48.893611 -130.743113 53.308957 -97.777358 1.989536 -1.274900 -10.704261 7.125000 0.000000 0.000000 
-4.060152 17.447011 11.693591 -14.524521 26.805223 -0.358625 -20.342673 -3.318310 -48.642825 0.356449 12.723231 32.923885 3.634550 -4.757372 27.955867 0.005000 -0.455700 -1.252100 17.827242 -1.100847 12.800326 -0.254065 -6.051200 19.316625 -0.486748 -10.818882 33.757496 -2.441900 9.731500 -28.111600 1.100201 12.683177 -2.244412 -0.060547 6.952198 -4.795148 4.267084 -8.540849 7.606473 2.474800 -4.273200 8.384800 -80.082320 31.327100 34.201708 86.108804 -64.593844 -67.486036 -0.746562 -2.167380 -19.758610 -7.125000 0.000000 0.000000 77.092027 1.652116 49.907793 -130.918315 53.238414 -97.854424 1.949289 -1.355549 -10.519286 7.125000 0.000000 0.000000 
-3.799168 17.500778 12.314502 -14.888188 26.769503 -0.495262 -21.436084 -1.692307 -47.843117 -0.162085 11.954723 30.753274 3.591189 -3.546357 29.162186 0.000800 -0.181300 -0.498100 18.014845 -0.052992 13.176520 -0.434551 -6.542972 20.609784 -1.654283 -9.792697 38.188679 -1.260800 7.117900 -20.065200 1.014865 13.016190 -2.285212 -0.455789 7.133841 -4.823981 4.380619 -8.602783 7.699985 2.498400 -4.277300 8.436800 -80.417955 32.253300 33.600341 86.366913 -64.702852 -67.695503 -0.746450 -2.162577 -19.609214 -7.125000 0.000000 0.000000 77.211093 1.004845 50.924609 -130.911825 53.233906 -97.806635 1.930334 -1.415752 -9.956225 7.125000 0.000000 0.000000 
-3.532140 17.518912 12.909219 -14.934372 26.974144 -0.239269 -22.761122 -0.557824 -47.265346 -0.357241 11.498880 29.398027 3.236015 -1.158653 30.257719 0.011600 0.695500 1.911300 17.945785 0.511047 12.531889 -0.739179 -7.304309 23.361571 -2.623941 -6.666140 40.062849 -0.526700 4.650700 -12.914900 0.924238 13.030658 -2.341747 -0.692020 7.149514 -4.784323 4.670917 -8.559944 7.767999 2.693700 -4.229200 8.519400 -80.942477 33.119111 32.838477 87.403218 -64.922462 -68.433153 -0.720573 -2.145855 -20.063943 -7.125000 0.000000 0.000000 77.356555 0.419685 52.009071 -130.598588 53.387819 -97.547488 1.865292 -1.494036 -8.941190 7.125000 0.000000 0.000000 
-3.294168 17.524320 13.519313 -15.162969 27.335790 -0.556365 -23.635160 0.645751 -46.209411 -0.344492 11.268018 28.715225 2.835881 1.318212 31.471087 0.084100 1.870700 5.148500 18.648213 0.960853 12.302115 -1.232272 -8.269983 26.986655 -2.738970 -3.719852 38.174282 -0.529400 4.662700 -12.949000 0.885536 12.956091 -2.354275 -0.707950 7.099961 -4.850718 4.872483 -8.533623 7.732704 2.728700 -4.175800 8.486400 -81.229591 33.913308 32.458436 89.188472 -65.217111 -69.583919 -0.730614 -2.181262 -20.467902 -7.125000 0.000000 0.000000 77.758647 -0.247543 52.853315 -129.995986 53.684689 -97.103376 1.793771 -1.557785 -7.865029 7.125000 0.000000 0.000000 
-3.072210 17.511913 14.119969 -15.724444 27.582257 -1.113661 -23.813219 1.551156 -45.047624 -0.221925 11.214958 28.572374 2.558654 3.127869 32.575507 0.111000 2.148100 5.915200 19.584393 1.081989 11.631402 -2.089665 -9.510566 31.215801 -2.444999 -2.874101 35.753195 -0.430900 4.212400 -11.675100 0.851287 12.929727 -2.373964 -0.971288 7.062014 -4.969894 4.911436 -8.417811 7.719082 2.611800 -4.073500 8.479500 -81.344677 34.464889 32.308481 91.403803 -65.496046 -70.978792 -0.777101 -2.206753 -20.539576 -7.125000 0.000000 0.000000 78.415898 -0.927769 53.535943 -129.064526 54.100681 -96.437829 1.799004 -1.551264 -6.900268 7.125000 0.000000 0.000000 
-2.815998 17.483810 14.765801 -15.037144 28.696749 -0.929394 -25.141926 1.564021 -43.542699 -0.051509 11.284180 29.056686 2.488112 3.563200 33.111279 0.092000 1.956600 5.385900 18.822332 -0.299399 10.241213 -3.219138 -10.793520 35.728685 -2.035243 -3.019688 33.385544 -0.416600 4.143000 -11.479300 0.835609 12.191518 -2.353619 -0.334131 6.704493 -4.739679 5.074750 -8.136736 7.788469 2.711100 -3.927700 8.497700 -82.131383 35.123861 31.688282 93.456617 -65.689396 -72.268276 -0.801256 -2.123647 -20.547065 -7.125000 0.000000 0.000000 78.879743 -1.899828 54.323687 -128.178219 54.542992 -95.799983 1.775974 -1.541914 -7.003677 7.125000 0.000000 0.000000 
